<mxfile host="app.diagrams.net" modified="2023-11-01T20:11:10.791Z" agent="Mozilla/5.0 (Macintosh; Intel Mac OS X 10_15_7) AppleWebKit/537.36 (KHTML, like Gecko) Chrome/117.0.0.0 Safari/537.36" etag="v8QsByFsSPvMFFBwwguu" version="22.0.8" type="github">
  <diagram name="Page-1" id="CUCDwR9WcQfr5-6zFDVO">
    <mxGraphModel dx="2261" dy="910" grid="1" gridSize="10" guides="1" tooltips="1" connect="1" arrows="1" fold="1" page="1" pageScale="1" pageWidth="827" pageHeight="1169" math="0" shadow="0">
      <root>
        <mxCell id="0" />
        <mxCell id="1" parent="0" />
        <mxCell id="jrZ9ld4mW0Ml7d3sND3q-13" style="edgeStyle=orthogonalEdgeStyle;rounded=0;orthogonalLoop=1;jettySize=auto;html=1;exitX=1;exitY=0.5;exitDx=0;exitDy=0;strokeWidth=4;fontSize=20;" parent="1" source="jrZ9ld4mW0Ml7d3sND3q-2" target="jrZ9ld4mW0Ml7d3sND3q-3" edge="1">
          <mxGeometry relative="1" as="geometry" />
        </mxCell>
        <mxCell id="jrZ9ld4mW0Ml7d3sND3q-2" value="" style="triangle;whiteSpace=wrap;html=1;strokeWidth=2;fontSize=20;" parent="1" vertex="1">
          <mxGeometry x="-160" y="410" width="60" height="80" as="geometry" />
        </mxCell>
        <mxCell id="jrZ9ld4mW0Ml7d3sND3q-14" style="edgeStyle=orthogonalEdgeStyle;rounded=0;orthogonalLoop=1;jettySize=auto;html=1;exitX=1;exitY=0.5;exitDx=0;exitDy=0;entryX=0;entryY=0.5;entryDx=0;entryDy=0;strokeWidth=4;fontSize=20;" parent="1" source="jrZ9ld4mW0Ml7d3sND3q-3" target="jrZ9ld4mW0Ml7d3sND3q-6" edge="1">
          <mxGeometry relative="1" as="geometry" />
        </mxCell>
        <mxCell id="jrZ9ld4mW0Ml7d3sND3q-3" value="" style="shape=sumEllipse;perimeter=ellipsePerimeter;whiteSpace=wrap;html=1;backgroundOutline=1;strokeWidth=2;fontSize=20;" parent="1" vertex="1">
          <mxGeometry x="23" y="410" width="80" height="80" as="geometry" />
        </mxCell>
        <mxCell id="jrZ9ld4mW0Ml7d3sND3q-17" style="edgeStyle=orthogonalEdgeStyle;rounded=0;orthogonalLoop=1;jettySize=auto;html=1;exitX=1;exitY=0.5;exitDx=0;exitDy=0;entryX=0.5;entryY=1;entryDx=0;entryDy=0;strokeWidth=4;fontSize=20;" parent="1" source="jrZ9ld4mW0Ml7d3sND3q-4" target="jrZ9ld4mW0Ml7d3sND3q-3" edge="1">
          <mxGeometry relative="1" as="geometry" />
        </mxCell>
        <mxCell id="jrZ9ld4mW0Ml7d3sND3q-4" value="" style="triangle;whiteSpace=wrap;html=1;rotation=-90;strokeWidth=2;fontSize=20;" parent="1" vertex="1">
          <mxGeometry x="33" y="600" width="60" height="80" as="geometry" />
        </mxCell>
        <mxCell id="jrZ9ld4mW0Ml7d3sND3q-16" style="edgeStyle=orthogonalEdgeStyle;rounded=0;orthogonalLoop=1;jettySize=auto;html=1;exitX=0.5;exitY=0;exitDx=0;exitDy=0;entryX=0;entryY=0.5;entryDx=0;entryDy=0;strokeWidth=4;fontSize=20;" parent="1" source="jrZ9ld4mW0Ml7d3sND3q-5" target="jrZ9ld4mW0Ml7d3sND3q-4" edge="1">
          <mxGeometry relative="1" as="geometry" />
        </mxCell>
        <mxCell id="jrZ9ld4mW0Ml7d3sND3q-5" value="&lt;font style=&quot;font-size: 20px;&quot;&gt;OSC&lt;/font&gt;" style="ellipse;whiteSpace=wrap;html=1;aspect=fixed;strokeWidth=2;fontSize=20;" parent="1" vertex="1">
          <mxGeometry x="23" y="780" width="80" height="80" as="geometry" />
        </mxCell>
        <mxCell id="jrZ9ld4mW0Ml7d3sND3q-15" style="edgeStyle=orthogonalEdgeStyle;rounded=0;orthogonalLoop=1;jettySize=auto;html=1;exitX=1;exitY=0.5;exitDx=0;exitDy=0;entryX=0;entryY=0.5;entryDx=0;entryDy=0;strokeWidth=4;fontSize=20;" parent="1" source="jrZ9ld4mW0Ml7d3sND3q-6" target="jrZ9ld4mW0Ml7d3sND3q-7" edge="1">
          <mxGeometry relative="1" as="geometry" />
        </mxCell>
        <mxCell id="jrZ9ld4mW0Ml7d3sND3q-6" value="" style="triangle;whiteSpace=wrap;html=1;strokeWidth=2;fontSize=20;" parent="1" vertex="1">
          <mxGeometry x="223" y="410" width="60" height="80" as="geometry" />
        </mxCell>
        <mxCell id="jrZ9ld4mW0Ml7d3sND3q-18" style="edgeStyle=orthogonalEdgeStyle;rounded=0;orthogonalLoop=1;jettySize=auto;html=1;exitX=1;exitY=0.5;exitDx=0;exitDy=0;strokeWidth=4;fontSize=20;" parent="1" source="jrZ9ld4mW0Ml7d3sND3q-7" target="jrZ9ld4mW0Ml7d3sND3q-8" edge="1">
          <mxGeometry relative="1" as="geometry" />
        </mxCell>
        <mxCell id="jrZ9ld4mW0Ml7d3sND3q-7" value="" style="triangle;whiteSpace=wrap;html=1;strokeWidth=2;fontSize=20;" parent="1" vertex="1">
          <mxGeometry x="413" y="410" width="60" height="80" as="geometry" />
        </mxCell>
        <mxCell id="jrZ9ld4mW0Ml7d3sND3q-8" value="" style="verticalLabelPosition=bottom;shadow=0;dashed=0;align=center;html=1;verticalAlign=top;shape=mxgraph.electrical.radio.aerial_-_antenna_1;strokeWidth=2;fontSize=20;" parent="1" vertex="1">
          <mxGeometry x="583" y="260" width="80" height="100" as="geometry" />
        </mxCell>
        <mxCell id="jrZ9ld4mW0Ml7d3sND3q-12" style="edgeStyle=orthogonalEdgeStyle;rounded=0;orthogonalLoop=1;jettySize=auto;html=1;exitX=0.5;exitY=1;exitDx=0;exitDy=0;entryX=0;entryY=0.5;entryDx=0;entryDy=0;strokeWidth=4;fontSize=20;" parent="1" source="jrZ9ld4mW0Ml7d3sND3q-19" target="jrZ9ld4mW0Ml7d3sND3q-2" edge="1">
          <mxGeometry relative="1" as="geometry">
            <mxPoint x="-237" y="450" as="sourcePoint" />
          </mxGeometry>
        </mxCell>
        <mxCell id="jrZ9ld4mW0Ml7d3sND3q-19" value="&lt;font style=&quot;font-size: 20px;&quot;&gt;DAC&lt;/font&gt;" style="shape=offPageConnector;whiteSpace=wrap;html=1;rotation=-90;strokeWidth=2;horizontal=1;verticalAlign=middle;fontSize=20;" parent="1" vertex="1">
          <mxGeometry x="-390" y="410" width="80" height="80" as="geometry" />
        </mxCell>
        <mxCell id="jrZ9ld4mW0Ml7d3sND3q-22" value="&lt;font style=&quot;font-size: 20px;&quot;&gt;f&lt;sub style=&quot;font-size: 20px;&quot;&gt;LO&lt;/sub&gt; = 2.4GHz&lt;/font&gt;" style="text;html=1;align=left;verticalAlign=middle;resizable=0;points=[];autosize=1;strokeColor=none;fillColor=none;fontSize=20;" parent="1" vertex="1">
          <mxGeometry x="113" y="800" width="150" height="40" as="geometry" />
        </mxCell>
        <mxCell id="q6qFZlMHjFmC30Wu0yNL-1" value="&lt;div style=&quot;text-align: left; font-size: 20px;&quot;&gt;&lt;span style=&quot;background-color: initial; font-size: 20px;&quot;&gt;&lt;font style=&quot;font-size: 20px;&quot;&gt;BW = 12.5KHz&lt;/font&gt;&lt;/span&gt;&lt;/div&gt;&lt;div style=&quot;text-align: left; font-size: 20px;&quot;&gt;&lt;span style=&quot;background-color: initial; font-size: 20px;&quot;&gt;&lt;font style=&quot;font-size: 20px;&quot;&gt;IF freq = 30MHz&lt;/font&gt;&lt;/span&gt;&lt;/div&gt;&lt;div style=&quot;text-align: left; font-size: 20px;&quot;&gt;&lt;span style=&quot;background-color: initial; font-size: 20px;&quot;&gt;&lt;font style=&quot;font-size: 20px;&quot;&gt;Power =&amp;nbsp;&amp;nbsp;&lt;/font&gt;&lt;/span&gt;&lt;/div&gt;" style="text;html=1;align=center;verticalAlign=middle;resizable=0;points=[];autosize=1;strokeColor=none;fillColor=none;fontSize=20;" vertex="1" parent="1">
          <mxGeometry x="-320" y="465" width="170" height="90" as="geometry" />
        </mxCell>
        <mxCell id="q6qFZlMHjFmC30Wu0yNL-2" value="&lt;div style=&quot;text-align: left; font-size: 20px;&quot;&gt;&lt;span style=&quot;background-color: initial; font-size: 20px;&quot;&gt;Freq =&lt;/span&gt;&lt;/div&gt;&lt;div style=&quot;text-align: left; font-size: 20px;&quot;&gt;&lt;span style=&quot;background-color: initial; font-size: 20px;&quot;&gt;&lt;font style=&quot;font-size: 20px;&quot;&gt;Power =&amp;nbsp;&amp;nbsp;&lt;/font&gt;&lt;/span&gt;&lt;/div&gt;" style="text;html=1;align=center;verticalAlign=middle;resizable=0;points=[];autosize=1;strokeColor=none;fillColor=none;fontSize=20;" vertex="1" parent="1">
          <mxGeometry x="283" y="465" width="110" height="60" as="geometry" />
        </mxCell>
        <mxCell id="q6qFZlMHjFmC30Wu0yNL-3" value="&lt;div style=&quot;text-align: left; font-size: 20px;&quot;&gt;&lt;span style=&quot;background-color: initial; font-size: 20px;&quot;&gt;Freq =&lt;/span&gt;&lt;/div&gt;&lt;div style=&quot;text-align: left; font-size: 20px;&quot;&gt;&lt;span style=&quot;background-color: initial; font-size: 20px;&quot;&gt;&lt;font style=&quot;font-size: 20px;&quot;&gt;Power =&amp;nbsp;&amp;nbsp;&lt;/font&gt;&lt;/span&gt;&lt;/div&gt;" style="text;html=1;align=center;verticalAlign=middle;resizable=0;points=[];autosize=1;strokeColor=none;fillColor=none;fontSize=20;" vertex="1" parent="1">
          <mxGeometry x="490" y="460" width="110" height="60" as="geometry" />
        </mxCell>
        <mxCell id="q6qFZlMHjFmC30Wu0yNL-4" value="&lt;div style=&quot;text-align: left; font-size: 20px;&quot;&gt;&lt;span style=&quot;background-color: initial; font-size: 20px;&quot;&gt;Freq =&lt;/span&gt;&lt;/div&gt;&lt;div style=&quot;text-align: left; font-size: 20px;&quot;&gt;&lt;span style=&quot;background-color: initial; font-size: 20px;&quot;&gt;&lt;font style=&quot;font-size: 20px;&quot;&gt;Power =&amp;nbsp;&amp;nbsp;&lt;/font&gt;&lt;/span&gt;&lt;/div&gt;" style="text;html=1;align=center;verticalAlign=middle;resizable=0;points=[];autosize=1;strokeColor=none;fillColor=none;fontSize=20;" vertex="1" parent="1">
          <mxGeometry x="103" y="465" width="110" height="60" as="geometry" />
        </mxCell>
        <mxCell id="q6qFZlMHjFmC30Wu0yNL-5" value="MAX2615&lt;br style=&quot;font-size: 20px;&quot;&gt;G = 18.6 dB&lt;br style=&quot;font-size: 20px;&quot;&gt;NF = 2 dB" style="text;html=1;align=center;verticalAlign=middle;resizable=0;points=[];autosize=1;strokeColor=none;fillColor=none;fontSize=20;" vertex="1" parent="1">
          <mxGeometry x="-107" y="600" width="130" height="90" as="geometry" />
        </mxCell>
        <mxCell id="q6qFZlMHjFmC30Wu0yNL-6" value="MAX2615&lt;br style=&quot;font-size: 20px;&quot;&gt;G = 18.6 dB&lt;br style=&quot;font-size: 20px;&quot;&gt;NF = 2 dB" style="text;html=1;align=center;verticalAlign=middle;resizable=0;points=[];autosize=1;strokeColor=none;fillColor=none;fontSize=20;" vertex="1" parent="1">
          <mxGeometry x="188" y="310" width="130" height="90" as="geometry" />
        </mxCell>
        <mxCell id="q6qFZlMHjFmC30Wu0yNL-7" value="MAX2615&lt;br style=&quot;font-size: 20px;&quot;&gt;G = 18.6 dB&lt;br style=&quot;font-size: 20px;&quot;&gt;NF = 2 dB" style="text;html=1;align=center;verticalAlign=middle;resizable=0;points=[];autosize=1;strokeColor=none;fillColor=none;fontSize=20;" vertex="1" parent="1">
          <mxGeometry x="370" y="310" width="130" height="90" as="geometry" />
        </mxCell>
        <mxCell id="q6qFZlMHjFmC30Wu0yNL-8" value="&lt;font style=&quot;font-size: 20px;&quot;&gt;VERT2450&lt;br style=&quot;font-size: 20px;&quot;&gt;G = 3dBi&lt;/font&gt;" style="text;html=1;align=center;verticalAlign=middle;resizable=0;points=[];autosize=1;strokeColor=none;fillColor=none;fontSize=20;" vertex="1" parent="1">
          <mxGeometry x="563" y="200" width="120" height="60" as="geometry" />
        </mxCell>
        <mxCell id="q6qFZlMHjFmC30Wu0yNL-9" value="&lt;font style=&quot;font-size: 20px;&quot;&gt;HMC213BMS8E&lt;/font&gt;" style="text;html=1;align=center;verticalAlign=middle;resizable=0;points=[];autosize=1;strokeColor=none;fillColor=none;fontSize=20;" vertex="1" parent="1">
          <mxGeometry x="-22" y="340" width="170" height="40" as="geometry" />
        </mxCell>
        <mxCell id="q6qFZlMHjFmC30Wu0yNL-10" value="MAX2615&lt;br style=&quot;font-size: 20px;&quot;&gt;G = 18.6 dB&lt;br style=&quot;font-size: 20px;&quot;&gt;NF = 2 dB" style="text;html=1;align=center;verticalAlign=middle;resizable=0;points=[];autosize=1;strokeColor=none;fillColor=none;fontSize=20;" vertex="1" parent="1">
          <mxGeometry x="-195" y="310" width="130" height="90" as="geometry" />
        </mxCell>
      </root>
    </mxGraphModel>
  </diagram>
</mxfile>
